<?xml version='1.0' encoding='UTF-8'?>
<svg width="63.6mm" height="63.6mm" version="1.1" viewBox="0 0 63.6 63.6" xmlns="http://www.w3.org/2000/svg"><path d="M4.8,4.8H6V6H4.8zM6,4.8H7.2V6H6zM7.2,4.8H8.4V6H7.2zM8.4,4.8H9.6V6H8.4zM9.6,4.8H10.8V6H9.6zM10.8,4.8H12V6H10.8zM12,4.8H13.2V6H12zM15.6,4.8H16.8V6H15.6zM19.2,4.8H20.4V6H19.2zM25.2,4.8H26.4V6H25.2zM26.4,4.8H27.6V6H26.4zM30,4.8H31.2V6H30zM36,4.8H37.2V6H36zM37.2,4.8H38.4V6H37.2zM38.4,4.8H39.6V6H38.4zM40.8,4.8H42V6H40.8zM44.4,4.8H45.6V6H44.4zM48,4.8H49.2V6H48zM50.4,4.8H51.6V6H50.4zM51.6,4.8H52.8V6H51.6zM52.8,4.8H54V6H52.8zM54,4.8H55.2V6H54zM55.2,4.8H56.4V6H55.2zM56.4,4.8H57.6V6H56.4zM57.6,4.8H58.8V6H57.6zM4.8,6H6V7.2H4.8zM12,6H13.2V7.2H12zM19.2,6H20.4V7.2H19.2zM22.8,6H24V7.2H22.8zM25.2,6H26.4V7.2H25.2zM27.6,6H28.8V7.2H27.6zM32.4,6H33.6V7.2H32.4zM33.6,6H34.8V7.2H33.6zM38.4,6H39.6V7.2H38.4zM39.6,6H40.8V7.2H39.6zM43.2,6H44.4V7.2H43.2zM44.4,6H45.6V7.2H44.4zM46.8,6H48V7.2H46.8zM50.4,6H51.6V7.2H50.4zM57.6,6H58.8V7.2H57.6zM4.8,7.2H6V8.4H4.8zM7.2,7.2H8.4V8.4H7.2zM8.4,7.2H9.6V8.4H8.4zM9.6,7.2H10.8V8.4H9.6zM12,7.2H13.2V8.4H12zM14.4,7.2H15.6V8.4H14.4zM15.6,7.2H16.8V8.4H15.6zM19.2,7.2H20.4V8.4H19.2zM22.8,7.2H24V8.4H22.8zM24,7.2H25.2V8.4H24zM25.2,7.2H26.4V8.4H25.2zM30,7.2H31.2V8.4H30zM33.6,7.2H34.8V8.4H33.6zM37.2,7.2H38.4V8.4H37.2zM40.8,7.2H42V8.4H40.8zM42,7.2H43.2V8.4H42zM44.4,7.2H45.6V8.4H44.4zM46.8,7.2H48V8.4H46.8zM50.4,7.2H51.6V8.4H50.4zM52.8,7.2H54V8.4H52.8zM54,7.2H55.2V8.4H54zM55.2,7.2H56.4V8.4H55.2zM57.6,7.2H58.8V8.4H57.6zM4.8,8.4H6V9.6H4.8zM7.2,8.4H8.4V9.6H7.2zM8.4,8.4H9.6V9.6H8.4zM9.6,8.4H10.8V9.6H9.6zM12,8.4H13.2V9.6H12zM14.4,8.4H15.6V9.6H14.4zM16.8,8.4H18V9.6H16.8zM18,8.4H19.2V9.6H18zM19.2,8.4H20.4V9.6H19.2zM22.8,8.4H24V9.6H22.8zM27.6,8.4H28.8V9.6H27.6zM30,8.4H31.2V9.6H30zM31.2,8.4H32.4V9.6H31.2zM37.2,8.4H38.4V9.6H37.2zM39.6,8.4H40.8V9.6H39.6zM40.8,8.4H42V9.6H40.8zM42,8.4H43.2V9.6H42zM44.4,8.4H45.6V9.6H44.4zM46.8,8.4H48V9.6H46.8zM48,8.4H49.2V9.6H48zM50.4,8.4H51.6V9.6H50.4zM52.8,8.4H54V9.6H52.8zM54,8.4H55.2V9.6H54zM55.2,8.4H56.4V9.6H55.2zM57.6,8.4H58.8V9.6H57.6zM4.8,9.6H6V10.8H4.8zM7.2,9.6H8.4V10.8H7.2zM8.4,9.6H9.6V10.8H8.4zM9.6,9.6H10.8V10.8H9.6zM12,9.6H13.2V10.8H12zM15.6,9.6H16.8V10.8H15.6zM18,9.6H19.2V10.8H18zM22.8,9.6H24V10.8H22.8zM24,9.6H25.2V10.8H24zM25.2,9.6H26.4V10.8H25.2zM28.8,9.6H30V10.8H28.8zM30,9.6H31.2V10.8H30zM31.2,9.6H32.4V10.8H31.2zM32.4,9.6H33.6V10.8H32.4zM33.6,9.6H34.8V10.8H33.6zM38.4,9.6H39.6V10.8H38.4zM40.8,9.6H42V10.8H40.8zM45.6,9.6H46.8V10.8H45.6zM46.8,9.6H48V10.8H46.8zM48,9.6H49.2V10.8H48zM50.4,9.6H51.6V10.8H50.4zM52.8,9.6H54V10.8H52.8zM54,9.6H55.2V10.8H54zM55.2,9.6H56.4V10.8H55.2zM57.6,9.6H58.8V10.8H57.6zM4.8,10.8H6V12H4.8zM12,10.8H13.2V12H12zM16.8,10.8H18V12H16.8zM20.4,10.8H21.6V12H20.4zM21.6,10.8H22.8V12H21.6zM24,10.8H25.2V12H24zM25.2,10.8H26.4V12H25.2zM26.4,10.8H27.6V12H26.4zM28.8,10.8H30V12H28.8zM33.6,10.8H34.8V12H33.6zM34.8,10.8H36V12H34.8zM37.2,10.8H38.4V12H37.2zM39.6,10.8H40.8V12H39.6zM42,10.8H43.2V12H42zM43.2,10.8H44.4V12H43.2zM50.4,10.8H51.6V12H50.4zM57.6,10.8H58.8V12H57.6zM4.8,12H6V13.2H4.8zM6,12H7.2V13.2H6zM7.2,12H8.4V13.2H7.2zM8.4,12H9.6V13.2H8.4zM9.6,12H10.8V13.2H9.6zM10.8,12H12V13.2H10.8zM12,12H13.2V13.2H12zM14.4,12H15.6V13.2H14.4zM16.8,12H18V13.2H16.8zM19.2,12H20.4V13.2H19.2zM21.6,12H22.8V13.2H21.6zM24,12H25.2V13.2H24zM26.4,12H27.6V13.2H26.4zM28.8,12H30V13.2H28.8zM31.2,12H32.4V13.2H31.2zM33.6,12H34.8V13.2H33.6zM36,12H37.2V13.2H36zM38.4,12H39.6V13.2H38.4zM40.8,12H42V13.2H40.8zM43.2,12H44.4V13.2H43.2zM45.6,12H46.8V13.2H45.6zM48,12H49.2V13.2H48zM50.4,12H51.6V13.2H50.4zM51.6,12H52.8V13.2H51.6zM52.8,12H54V13.2H52.8zM54,12H55.2V13.2H54zM55.2,12H56.4V13.2H55.2zM56.4,12H57.6V13.2H56.4zM57.6,12H58.8V13.2H57.6zM15.6,13.2H16.8V14.4H15.6zM16.8,13.2H18V14.4H16.8zM18,13.2H19.2V14.4H18zM20.4,13.2H21.6V14.4H20.4zM22.8,13.2H24V14.4H22.8zM24,13.2H25.2V14.4H24zM25.2,13.2H26.4V14.4H25.2zM27.6,13.2H28.8V14.4H27.6zM28.8,13.2H30V14.4H28.8zM33.6,13.2H34.8V14.4H33.6zM38.4,13.2H39.6V14.4H38.4zM39.6,13.2H40.8V14.4H39.6zM44.4,13.2H45.6V14.4H44.4zM45.6,13.2H46.8V14.4H45.6zM8.4,14.4H9.6V15.6H8.4zM9.6,14.4H10.8V15.6H9.6zM12,14.4H13.2V15.6H12zM13.2,14.4H14.4V15.6H13.2zM15.6,14.4H16.8V15.6H15.6zM18,14.4H19.2V15.6H18zM22.8,14.4H24V15.6H22.8zM24,14.4H25.2V15.6H24zM28.8,14.4H30V15.6H28.8zM30,14.4H31.2V15.6H30zM31.2,14.4H32.4V15.6H31.2zM32.4,14.4H33.6V15.6H32.4zM33.6,14.4H34.8V15.6H33.6zM38.4,14.4H39.6V15.6H38.4zM39.6,14.4H40.8V15.6H39.6zM54,14.4H55.2V15.6H54zM55.2,14.4H56.4V15.6H55.2zM4.8,15.6H6V16.8H4.8zM6,15.6H7.2V16.8H6zM14.4,15.6H15.6V16.8H14.4zM15.6,15.6H16.8V16.8H15.6zM16.8,15.6H18V16.8H16.8zM18,15.6H19.2V16.8H18zM19.2,15.6H20.4V16.8H19.2zM22.8,15.6H24V16.8H22.8zM24,15.6H25.2V16.8H24zM25.2,15.6H26.4V16.8H25.2zM26.4,15.6H27.6V16.8H26.4zM27.6,15.6H28.8V16.8H27.6zM28.8,15.6H30V16.8H28.8zM30,15.6H31.2V16.8H30zM31.2,15.6H32.4V16.8H31.2zM32.4,15.6H33.6V16.8H32.4zM36,15.6H37.2V16.8H36zM40.8,15.6H42V16.8H40.8zM42,15.6H43.2V16.8H42zM45.6,15.6H46.8V16.8H45.6zM46.8,15.6H48V16.8H46.8zM48,15.6H49.2V16.8H48zM49.2,15.6H50.4V16.8H49.2zM50.4,15.6H51.6V16.8H50.4zM51.6,15.6H52.8V16.8H51.6zM52.8,15.6H54V16.8H52.8zM54,15.6H55.2V16.8H54zM55.2,15.6H56.4V16.8H55.2zM9.6,16.8H10.8V18H9.6zM10.8,16.8H12V18H10.8zM12,16.8H13.2V18H12zM13.2,16.8H14.4V18H13.2zM14.4,16.8H15.6V18H14.4zM15.6,16.8H16.8V18H15.6zM18,16.8H19.2V18H18zM21.6,16.8H22.8V18H21.6zM25.2,16.8H26.4V18H25.2zM30,16.8H31.2V18H30zM32.4,16.8H33.6V18H32.4zM34.8,16.8H36V18H34.8zM37.2,16.8H38.4V18H37.2zM38.4,16.8H39.6V18H38.4zM39.6,16.8H40.8V18H39.6zM43.2,16.8H44.4V18H43.2zM44.4,16.8H45.6V18H44.4zM45.6,16.8H46.8V18H45.6zM48,16.8H49.2V18H48zM52.8,16.8H54V18H52.8zM55.2,16.8H56.4V18H55.2zM56.4,16.8H57.6V18H56.4zM57.6,16.8H58.8V18H57.6zM6,18H7.2V19.2H6zM9.6,18H10.8V19.2H9.6zM10.8,18H12V19.2H10.8zM13.2,18H14.4V19.2H13.2zM18,18H19.2V19.2H18zM20.4,18H21.6V19.2H20.4zM22.8,18H24V19.2H22.8zM24,18H25.2V19.2H24zM25.2,18H26.4V19.2H25.2zM28.8,18H30V19.2H28.8zM30,18H31.2V19.2H30zM33.6,18H34.8V19.2H33.6zM37.2,18H38.4V19.2H37.2zM38.4,18H39.6V19.2H38.4zM40.8,18H42V19.2H40.8zM43.2,18H44.4V19.2H43.2zM44.4,18H45.6V19.2H44.4zM46.8,18H48V19.2H46.8zM55.2,18H56.4V19.2H55.2zM56.4,18H57.6V19.2H56.4zM57.6,18H58.8V19.2H57.6zM4.8,19.2H6V20.4H4.8zM7.2,19.2H8.4V20.4H7.2zM12,19.2H13.2V20.4H12zM13.2,19.2H14.4V20.4H13.2zM14.4,19.2H15.6V20.4H14.4zM19.2,19.2H20.4V20.4H19.2zM20.4,19.2H21.6V20.4H20.4zM22.8,19.2H24V20.4H22.8zM25.2,19.2H26.4V20.4H25.2zM30,19.2H31.2V20.4H30zM31.2,19.2H32.4V20.4H31.2zM33.6,19.2H34.8V20.4H33.6zM34.8,19.2H36V20.4H34.8zM36,19.2H37.2V20.4H36zM39.6,19.2H40.8V20.4H39.6zM40.8,19.2H42V20.4H40.8zM43.2,19.2H44.4V20.4H43.2zM44.4,19.2H45.6V20.4H44.4zM49.2,19.2H50.4V20.4H49.2zM50.4,19.2H51.6V20.4H50.4zM52.8,19.2H54V20.4H52.8zM54,19.2H55.2V20.4H54zM56.4,19.2H57.6V20.4H56.4zM6,20.4H7.2V21.6H6zM7.2,20.4H8.4V21.6H7.2zM8.4,20.4H9.6V21.6H8.4zM9.6,20.4H10.8V21.6H9.6zM13.2,20.4H14.4V21.6H13.2zM14.4,20.4H15.6V21.6H14.4zM16.8,20.4H18V21.6H16.8zM18,20.4H19.2V21.6H18zM19.2,20.4H20.4V21.6H19.2zM22.8,20.4H24V21.6H22.8zM24,20.4H25.2V21.6H24zM25.2,20.4H26.4V21.6H25.2zM27.6,20.4H28.8V21.6H27.6zM30,20.4H31.2V21.6H30zM31.2,20.4H32.4V21.6H31.2zM36,20.4H37.2V21.6H36zM39.6,20.4H40.8V21.6H39.6zM40.8,20.4H42V21.6H40.8zM43.2,20.4H44.4V21.6H43.2zM44.4,20.4H45.6V21.6H44.4zM46.8,20.4H48V21.6H46.8zM48,20.4H49.2V21.6H48zM50.4,20.4H51.6V21.6H50.4zM51.6,20.4H52.8V21.6H51.6zM56.4,20.4H57.6V21.6H56.4zM6,21.6H7.2V22.8H6zM8.4,21.6H9.6V22.8H8.4zM10.8,21.6H12V22.8H10.8zM12,21.6H13.2V22.8H12zM13.2,21.6H14.4V22.8H13.2zM14.4,21.6H15.6V22.8H14.4zM15.6,21.6H16.8V22.8H15.6zM16.8,21.6H18V22.8H16.8zM18,21.6H19.2V22.8H18zM19.2,21.6H20.4V22.8H19.2zM21.6,21.6H22.8V22.8H21.6zM25.2,21.6H26.4V22.8H25.2zM28.8,21.6H30V22.8H28.8zM32.4,21.6H33.6V22.8H32.4zM36,21.6H37.2V22.8H36zM38.4,21.6H39.6V22.8H38.4zM42,21.6H43.2V22.8H42zM43.2,21.6H44.4V22.8H43.2zM44.4,21.6H45.6V22.8H44.4zM48,21.6H49.2V22.8H48zM50.4,21.6H51.6V22.8H50.4zM51.6,21.6H52.8V22.8H51.6zM52.8,21.6H54V22.8H52.8zM55.2,21.6H56.4V22.8H55.2zM6,22.8H7.2V24H6zM8.4,22.8H9.6V24H8.4zM14.4,22.8H15.6V24H14.4zM15.6,22.8H16.8V24H15.6zM16.8,22.8H18V24H16.8zM24,22.8H25.2V24H24zM25.2,22.8H26.4V24H25.2zM28.8,22.8H30V24H28.8zM31.2,22.8H32.4V24H31.2zM32.4,22.8H33.6V24H32.4zM33.6,22.8H34.8V24H33.6zM38.4,22.8H39.6V24H38.4zM40.8,22.8H42V24H40.8zM44.4,22.8H45.6V24H44.4zM45.6,22.8H46.8V24H45.6zM49.2,22.8H50.4V24H49.2zM50.4,22.8H51.6V24H50.4zM54,22.8H55.2V24H54zM55.2,22.8H56.4V24H55.2zM56.4,22.8H57.6V24H56.4zM6,24H7.2V25.2H6zM7.2,24H8.4V25.2H7.2zM8.4,24H9.6V25.2H8.4zM9.6,24H10.8V25.2H9.6zM12,24H13.2V25.2H12zM13.2,24H14.4V25.2H13.2zM14.4,24H15.6V25.2H14.4zM18,24H19.2V25.2H18zM20.4,24H21.6V25.2H20.4zM24,24H25.2V25.2H24zM25.2,24H26.4V25.2H25.2zM26.4,24H27.6V25.2H26.4zM27.6,24H28.8V25.2H27.6zM30,24H31.2V25.2H30zM33.6,24H34.8V25.2H33.6zM36,24H37.2V25.2H36zM40.8,24H42V25.2H40.8zM42,24H43.2V25.2H42zM43.2,24H44.4V25.2H43.2zM46.8,24H48V25.2H46.8zM57.6,24H58.8V25.2H57.6zM8.4,25.2H9.6V26.4H8.4zM14.4,25.2H15.6V26.4H14.4zM15.6,25.2H16.8V26.4H15.6zM18,25.2H19.2V26.4H18zM19.2,25.2H20.4V26.4H19.2zM20.4,25.2H21.6V26.4H20.4zM24,25.2H25.2V26.4H24zM25.2,25.2H26.4V26.4H25.2zM26.4,25.2H27.6V26.4H26.4zM31.2,25.2H32.4V26.4H31.2zM32.4,25.2H33.6V26.4H32.4zM34.8,25.2H36V26.4H34.8zM37.2,25.2H38.4V26.4H37.2zM39.6,25.2H40.8V26.4H39.6zM40.8,25.2H42V26.4H40.8zM42,25.2H43.2V26.4H42zM44.4,25.2H45.6V26.4H44.4zM45.6,25.2H46.8V26.4H45.6zM48,25.2H49.2V26.4H48zM49.2,25.2H50.4V26.4H49.2zM51.6,25.2H52.8V26.4H51.6zM55.2,25.2H56.4V26.4H55.2zM56.4,25.2H57.6V26.4H56.4zM57.6,25.2H58.8V26.4H57.6zM4.8,26.4H6V27.6H4.8zM6,26.4H7.2V27.6H6zM9.6,26.4H10.8V27.6H9.6zM12,26.4H13.2V27.6H12zM13.2,26.4H14.4V27.6H13.2zM14.4,26.4H15.6V27.6H14.4zM15.6,26.4H16.8V27.6H15.6zM16.8,26.4H18V27.6H16.8zM18,26.4H19.2V27.6H18zM22.8,26.4H24V27.6H22.8zM25.2,26.4H26.4V27.6H25.2zM30,26.4H31.2V27.6H30zM31.2,26.4H32.4V27.6H31.2zM32.4,26.4H33.6V27.6H32.4zM33.6,26.4H34.8V27.6H33.6zM34.8,26.4H36V27.6H34.8zM37.2,26.4H38.4V27.6H37.2zM40.8,26.4H42V27.6H40.8zM44.4,26.4H45.6V27.6H44.4zM48,26.4H49.2V27.6H48zM52.8,26.4H54V27.6H52.8zM54,26.4H55.2V27.6H54zM55.2,26.4H56.4V27.6H55.2zM57.6,26.4H58.8V27.6H57.6zM7.2,27.6H8.4V28.8H7.2zM8.4,27.6H9.6V28.8H8.4zM10.8,27.6H12V28.8H10.8zM18,27.6H19.2V28.8H18zM20.4,27.6H21.6V28.8H20.4zM21.6,27.6H22.8V28.8H21.6zM24,27.6H25.2V28.8H24zM27.6,27.6H28.8V28.8H27.6zM28.8,27.6H30V28.8H28.8zM30,27.6H31.2V28.8H30zM31.2,27.6H32.4V28.8H31.2zM32.4,27.6H33.6V28.8H32.4zM34.8,27.6H36V28.8H34.8zM36,27.6H37.2V28.8H36zM38.4,27.6H39.6V28.8H38.4zM39.6,27.6H40.8V28.8H39.6zM42,27.6H43.2V28.8H42zM44.4,27.6H45.6V28.8H44.4zM45.6,27.6H46.8V28.8H45.6zM48,27.6H49.2V28.8H48zM49.2,27.6H50.4V28.8H49.2zM52.8,27.6H54V28.8H52.8zM54,27.6H55.2V28.8H54zM55.2,27.6H56.4V28.8H55.2zM7.2,28.8H8.4V30H7.2zM9.6,28.8H10.8V30H9.6zM10.8,28.8H12V30H10.8zM12,28.8H13.2V30H12zM13.2,28.8H14.4V30H13.2zM14.4,28.8H15.6V30H14.4zM16.8,28.8H18V30H16.8zM19.2,28.8H20.4V30H19.2zM21.6,28.8H22.8V30H21.6zM25.2,28.8H26.4V30H25.2zM26.4,28.8H27.6V30H26.4zM27.6,28.8H28.8V30H27.6zM28.8,28.8H30V30H28.8zM30,28.8H31.2V30H30zM31.2,28.8H32.4V30H31.2zM32.4,28.8H33.6V30H32.4zM33.6,28.8H34.8V30H33.6zM36,28.8H37.2V30H36zM44.4,28.8H45.6V30H44.4zM48,28.8H49.2V30H48zM49.2,28.8H50.4V30H49.2zM50.4,28.8H51.6V30H50.4zM51.6,28.8H52.8V30H51.6zM52.8,28.8H54V30H52.8zM56.4,28.8H57.6V30H56.4zM4.8,30H6V31.2H4.8zM9.6,30H10.8V31.2H9.6zM14.4,30H15.6V31.2H14.4zM18,30H19.2V31.2H18zM19.2,30H20.4V31.2H19.2zM22.8,30H24V31.2H22.8zM24,30H25.2V31.2H24zM27.6,30H28.8V31.2H27.6zM28.8,30H30V31.2H28.8zM33.6,30H34.8V31.2H33.6zM36,30H37.2V31.2H36zM39.6,30H40.8V31.2H39.6zM42,30H43.2V31.2H42zM43.2,30H44.4V31.2H43.2zM44.4,30H45.6V31.2H44.4zM45.6,30H46.8V31.2H45.6zM46.8,30H48V31.2H46.8zM48,30H49.2V31.2H48zM52.8,30H54V31.2H52.8zM54,30H55.2V31.2H54zM4.8,31.2H6V32.4H4.8zM9.6,31.2H10.8V32.4H9.6zM12,31.2H13.2V32.4H12zM14.4,31.2H15.6V32.4H14.4zM20.4,31.2H21.6V32.4H20.4zM25.2,31.2H26.4V32.4H25.2zM28.8,31.2H30V32.4H28.8zM31.2,31.2H32.4V32.4H31.2zM33.6,31.2H34.8V32.4H33.6zM36,31.2H37.2V32.4H36zM39.6,31.2H40.8V32.4H39.6zM40.8,31.2H42V32.4H40.8zM42,31.2H43.2V32.4H42zM43.2,31.2H44.4V32.4H43.2zM45.6,31.2H46.8V32.4H45.6zM46.8,31.2H48V32.4H46.8zM48,31.2H49.2V32.4H48zM50.4,31.2H51.6V32.4H50.4zM52.8,31.2H54V32.4H52.8zM56.4,31.2H57.6V32.4H56.4zM57.6,31.2H58.8V32.4H57.6zM6,32.4H7.2V33.6H6zM8.4,32.4H9.6V33.6H8.4zM9.6,32.4H10.8V33.6H9.6zM14.4,32.4H15.6V33.6H14.4zM15.6,32.4H16.8V33.6H15.6zM18,32.4H19.2V33.6H18zM19.2,32.4H20.4V33.6H19.2zM24,32.4H25.2V33.6H24zM26.4,32.4H27.6V33.6H26.4zM27.6,32.4H28.8V33.6H27.6zM28.8,32.4H30V33.6H28.8zM33.6,32.4H34.8V33.6H33.6zM34.8,32.4H36V33.6H34.8zM37.2,32.4H38.4V33.6H37.2zM39.6,32.4H40.8V33.6H39.6zM44.4,32.4H45.6V33.6H44.4zM45.6,32.4H46.8V33.6H45.6zM46.8,32.4H48V33.6H46.8zM48,32.4H49.2V33.6H48zM52.8,32.4H54V33.6H52.8zM54,32.4H55.2V33.6H54zM55.2,32.4H56.4V33.6H55.2zM56.4,32.4H57.6V33.6H56.4zM6,33.6H7.2V34.8H6zM9.6,33.6H10.8V34.8H9.6zM10.8,33.6H12V34.8H10.8zM12,33.6H13.2V34.8H12zM13.2,33.6H14.4V34.8H13.2zM14.4,33.6H15.6V34.8H14.4zM16.8,33.6H18V34.8H16.8zM18,33.6H19.2V34.8H18zM19.2,33.6H20.4V34.8H19.2zM21.6,33.6H22.8V34.8H21.6zM22.8,33.6H24V34.8H22.8zM24,33.6H25.2V34.8H24zM25.2,33.6H26.4V34.8H25.2zM28.8,33.6H30V34.8H28.8zM30,33.6H31.2V34.8H30zM31.2,33.6H32.4V34.8H31.2zM32.4,33.6H33.6V34.8H32.4zM33.6,33.6H34.8V34.8H33.6zM36,33.6H37.2V34.8H36zM38.4,33.6H39.6V34.8H38.4zM42,33.6H43.2V34.8H42zM43.2,33.6H44.4V34.8H43.2zM44.4,33.6H45.6V34.8H44.4zM45.6,33.6H46.8V34.8H45.6zM46.8,33.6H48V34.8H46.8zM48,33.6H49.2V34.8H48zM49.2,33.6H50.4V34.8H49.2zM50.4,33.6H51.6V34.8H50.4zM51.6,33.6H52.8V34.8H51.6zM52.8,33.6H54V34.8H52.8zM54,33.6H55.2V34.8H54zM4.8,34.8H6V36H4.8zM6,34.8H7.2V36H6zM7.2,34.8H8.4V36H7.2zM8.4,34.8H9.6V36H8.4zM9.6,34.8H10.8V36H9.6zM10.8,34.8H12V36H10.8zM13.2,34.8H14.4V36H13.2zM18,34.8H19.2V36H18zM21.6,34.8H22.8V36H21.6zM24,34.8H25.2V36H24zM25.2,34.8H26.4V36H25.2zM28.8,34.8H30V36H28.8zM31.2,34.8H32.4V36H31.2zM33.6,34.8H34.8V36H33.6zM37.2,34.8H38.4V36H37.2zM39.6,34.8H40.8V36H39.6zM44.4,34.8H45.6V36H44.4zM46.8,34.8H48V36H46.8zM48,34.8H49.2V36H48zM50.4,34.8H51.6V36H50.4zM51.6,34.8H52.8V36H51.6zM56.4,34.8H57.6V36H56.4zM4.8,36H6V37.2H4.8zM8.4,36H9.6V37.2H8.4zM12,36H13.2V37.2H12zM15.6,36H16.8V37.2H15.6zM16.8,36H18V37.2H16.8zM19.2,36H20.4V37.2H19.2zM20.4,36H21.6V37.2H20.4zM24,36H25.2V37.2H24zM27.6,36H28.8V37.2H27.6zM28.8,36H30V37.2H28.8zM34.8,36H36V37.2H34.8zM37.2,36H38.4V37.2H37.2zM40.8,36H42V37.2H40.8zM43.2,36H44.4V37.2H43.2zM44.4,36H45.6V37.2H44.4zM46.8,36H48V37.2H46.8zM48,36H49.2V37.2H48zM51.6,36H52.8V37.2H51.6zM54,36H55.2V37.2H54zM55.2,36H56.4V37.2H55.2zM4.8,37.2H6V38.4H4.8zM7.2,37.2H8.4V38.4H7.2zM9.6,37.2H10.8V38.4H9.6zM13.2,37.2H14.4V38.4H13.2zM16.8,37.2H18V38.4H16.8zM18,37.2H19.2V38.4H18zM21.6,37.2H22.8V38.4H21.6zM22.8,37.2H24V38.4H22.8zM24,37.2H25.2V38.4H24zM25.2,37.2H26.4V38.4H25.2zM26.4,37.2H27.6V38.4H26.4zM30,37.2H31.2V38.4H30zM31.2,37.2H32.4V38.4H31.2zM34.8,37.2H36V38.4H34.8zM36,37.2H37.2V38.4H36zM37.2,37.2H38.4V38.4H37.2zM38.4,37.2H39.6V38.4H38.4zM39.6,37.2H40.8V38.4H39.6zM40.8,37.2H42V38.4H40.8zM42,37.2H43.2V38.4H42zM44.4,37.2H45.6V38.4H44.4zM46.8,37.2H48V38.4H46.8zM49.2,37.2H50.4V38.4H49.2zM51.6,37.2H52.8V38.4H51.6zM54,37.2H55.2V38.4H54zM55.2,37.2H56.4V38.4H55.2zM56.4,37.2H57.6V38.4H56.4zM57.6,37.2H58.8V38.4H57.6zM4.8,38.4H6V39.6H4.8zM7.2,38.4H8.4V39.6H7.2zM8.4,38.4H9.6V39.6H8.4zM12,38.4H13.2V39.6H12zM16.8,38.4H18V39.6H16.8zM18,38.4H19.2V39.6H18zM19.2,38.4H20.4V39.6H19.2zM20.4,38.4H21.6V39.6H20.4zM21.6,38.4H22.8V39.6H21.6zM31.2,38.4H32.4V39.6H31.2zM32.4,38.4H33.6V39.6H32.4zM36,38.4H37.2V39.6H36zM39.6,38.4H40.8V39.6H39.6zM40.8,38.4H42V39.6H40.8zM42,38.4H43.2V39.6H42zM43.2,38.4H44.4V39.6H43.2zM45.6,38.4H46.8V39.6H45.6zM46.8,38.4H48V39.6H46.8zM49.2,38.4H50.4V39.6H49.2zM52.8,38.4H54V39.6H52.8zM56.4,38.4H57.6V39.6H56.4zM4.8,39.6H6V40.8H4.8zM6,39.6H7.2V40.8H6zM7.2,39.6H8.4V40.8H7.2zM10.8,39.6H12V40.8H10.8zM14.4,39.6H15.6V40.8H14.4zM15.6,39.6H16.8V40.8H15.6zM16.8,39.6H18V40.8H16.8zM18,39.6H19.2V40.8H18zM20.4,39.6H21.6V40.8H20.4zM21.6,39.6H22.8V40.8H21.6zM24,39.6H25.2V40.8H24zM27.6,39.6H28.8V40.8H27.6zM28.8,39.6H30V40.8H28.8zM31.2,39.6H32.4V40.8H31.2zM33.6,39.6H34.8V40.8H33.6zM34.8,39.6H36V40.8H34.8zM36,39.6H37.2V40.8H36zM38.4,39.6H39.6V40.8H38.4zM42,39.6H43.2V40.8H42zM44.4,39.6H45.6V40.8H44.4zM45.6,39.6H46.8V40.8H45.6zM46.8,39.6H48V40.8H46.8zM50.4,39.6H51.6V40.8H50.4zM51.6,39.6H52.8V40.8H51.6zM52.8,39.6H54V40.8H52.8zM57.6,39.6H58.8V40.8H57.6zM4.8,40.8H6V42H4.8zM7.2,40.8H8.4V42H7.2zM9.6,40.8H10.8V42H9.6zM10.8,40.8H12V42H10.8zM12,40.8H13.2V42H12zM15.6,40.8H16.8V42H15.6zM16.8,40.8H18V42H16.8zM18,40.8H19.2V42H18zM19.2,40.8H20.4V42H19.2zM22.8,40.8H24V42H22.8zM26.4,40.8H27.6V42H26.4zM31.2,40.8H32.4V42H31.2zM34.8,40.8H36V42H34.8zM37.2,40.8H38.4V42H37.2zM43.2,40.8H44.4V42H43.2zM44.4,40.8H45.6V42H44.4zM46.8,40.8H48V42H46.8zM48,40.8H49.2V42H48zM49.2,40.8H50.4V42H49.2zM50.4,40.8H51.6V42H50.4zM51.6,40.8H52.8V42H51.6zM52.8,40.8H54V42H52.8zM54,40.8H55.2V42H54zM57.6,40.8H58.8V42H57.6zM9.6,42H10.8V43.2H9.6zM13.2,42H14.4V43.2H13.2zM14.4,42H15.6V43.2H14.4zM18,42H19.2V43.2H18zM19.2,42H20.4V43.2H19.2zM20.4,42H21.6V43.2H20.4zM22.8,42H24V43.2H22.8zM26.4,42H27.6V43.2H26.4zM28.8,42H30V43.2H28.8zM30,42H31.2V43.2H30zM33.6,42H34.8V43.2H33.6zM37.2,42H38.4V43.2H37.2zM42,42H43.2V43.2H42zM46.8,42H48V43.2H46.8zM49.2,42H50.4V43.2H49.2zM51.6,42H52.8V43.2H51.6zM54,42H55.2V43.2H54zM55.2,42H56.4V43.2H55.2zM4.8,43.2H6V44.4H4.8zM6,43.2H7.2V44.4H6zM8.4,43.2H9.6V44.4H8.4zM10.8,43.2H12V44.4H10.8zM12,43.2H13.2V44.4H12zM13.2,43.2H14.4V44.4H13.2zM14.4,43.2H15.6V44.4H14.4zM15.6,43.2H16.8V44.4H15.6zM19.2,43.2H20.4V44.4H19.2zM21.6,43.2H22.8V44.4H21.6zM22.8,43.2H24V44.4H22.8zM24,43.2H25.2V44.4H24zM26.4,43.2H27.6V44.4H26.4zM27.6,43.2H28.8V44.4H27.6zM30,43.2H31.2V44.4H30zM31.2,43.2H32.4V44.4H31.2zM33.6,43.2H34.8V44.4H33.6zM38.4,43.2H39.6V44.4H38.4zM39.6,43.2H40.8V44.4H39.6zM51.6,43.2H52.8V44.4H51.6zM54,43.2H55.2V44.4H54zM57.6,43.2H58.8V44.4H57.6zM4.8,44.4H6V45.6H4.8zM6,44.4H7.2V45.6H6zM8.4,44.4H9.6V45.6H8.4zM10.8,44.4H12V45.6H10.8zM15.6,44.4H16.8V45.6H15.6zM16.8,44.4H18V45.6H16.8zM18,44.4H19.2V45.6H18zM19.2,44.4H20.4V45.6H19.2zM25.2,44.4H26.4V45.6H25.2zM28.8,44.4H30V45.6H28.8zM31.2,44.4H32.4V45.6H31.2zM38.4,44.4H39.6V45.6H38.4zM39.6,44.4H40.8V45.6H39.6zM40.8,44.4H42V45.6H40.8zM44.4,44.4H45.6V45.6H44.4zM45.6,44.4H46.8V45.6H45.6zM49.2,44.4H50.4V45.6H49.2zM52.8,44.4H54V45.6H52.8zM54,44.4H55.2V45.6H54zM55.2,44.4H56.4V45.6H55.2zM9.6,45.6H10.8V46.8H9.6zM12,45.6H13.2V46.8H12zM13.2,45.6H14.4V46.8H13.2zM15.6,45.6H16.8V46.8H15.6zM16.8,45.6H18V46.8H16.8zM18,45.6H19.2V46.8H18zM21.6,45.6H22.8V46.8H21.6zM22.8,45.6H24V46.8H22.8zM28.8,45.6H30V46.8H28.8zM30,45.6H31.2V46.8H30zM31.2,45.6H32.4V46.8H31.2zM36,45.6H37.2V46.8H36zM42,45.6H43.2V46.8H42zM44.4,45.6H45.6V46.8H44.4zM45.6,45.6H46.8V46.8H45.6zM48,45.6H49.2V46.8H48zM49.2,45.6H50.4V46.8H49.2zM50.4,45.6H51.6V46.8H50.4zM51.6,45.6H52.8V46.8H51.6zM54,45.6H55.2V46.8H54zM55.2,45.6H56.4V46.8H55.2zM56.4,45.6H57.6V46.8H56.4zM57.6,45.6H58.8V46.8H57.6zM6,46.8H7.2V48H6zM7.2,46.8H8.4V48H7.2zM8.4,46.8H9.6V48H8.4zM9.6,46.8H10.8V48H9.6zM18,46.8H19.2V48H18zM19.2,46.8H20.4V48H19.2zM24,46.8H25.2V48H24zM27.6,46.8H28.8V48H27.6zM30,46.8H31.2V48H30zM33.6,46.8H34.8V48H33.6zM34.8,46.8H36V48H34.8zM39.6,46.8H40.8V48H39.6zM43.2,46.8H44.4V48H43.2zM45.6,46.8H46.8V48H45.6zM49.2,46.8H50.4V48H49.2zM50.4,46.8H51.6V48H50.4zM51.6,46.8H52.8V48H51.6zM52.8,46.8H54V48H52.8zM55.2,46.8H56.4V48H55.2zM56.4,46.8H57.6V48H56.4zM4.8,48H6V49.2H4.8zM8.4,48H9.6V49.2H8.4zM9.6,48H10.8V49.2H9.6zM12,48H13.2V49.2H12zM15.6,48H16.8V49.2H15.6zM19.2,48H20.4V49.2H19.2zM20.4,48H21.6V49.2H20.4zM21.6,48H22.8V49.2H21.6zM26.4,48H27.6V49.2H26.4zM27.6,48H28.8V49.2H27.6zM28.8,48H30V49.2H28.8zM30,48H31.2V49.2H30zM31.2,48H32.4V49.2H31.2zM32.4,48H33.6V49.2H32.4zM33.6,48H34.8V49.2H33.6zM34.8,48H36V49.2H34.8zM36,48H37.2V49.2H36zM37.2,48H38.4V49.2H37.2zM38.4,48H39.6V49.2H38.4zM40.8,48H42V49.2H40.8zM42,48H43.2V49.2H42zM43.2,48H44.4V49.2H43.2zM44.4,48H45.6V49.2H44.4zM46.8,48H48V49.2H46.8zM48,48H49.2V49.2H48zM49.2,48H50.4V49.2H49.2zM50.4,48H51.6V49.2H50.4zM51.6,48H52.8V49.2H51.6zM52.8,48H54V49.2H52.8zM56.4,48H57.6V49.2H56.4zM14.4,49.2H15.6V50.4H14.4zM15.6,49.2H16.8V50.4H15.6zM16.8,49.2H18V50.4H16.8zM18,49.2H19.2V50.4H18zM19.2,49.2H20.4V50.4H19.2zM21.6,49.2H22.8V50.4H21.6zM22.8,49.2H24V50.4H22.8zM24,49.2H25.2V50.4H24zM27.6,49.2H28.8V50.4H27.6zM28.8,49.2H30V50.4H28.8zM33.6,49.2H34.8V50.4H33.6zM34.8,49.2H36V50.4H34.8zM38.4,49.2H39.6V50.4H38.4zM39.6,49.2H40.8V50.4H39.6zM40.8,49.2H42V50.4H40.8zM43.2,49.2H44.4V50.4H43.2zM48,49.2H49.2V50.4H48zM52.8,49.2H54V50.4H52.8zM4.8,50.4H6V51.6H4.8zM6,50.4H7.2V51.6H6zM7.2,50.4H8.4V51.6H7.2zM8.4,50.4H9.6V51.6H8.4zM9.6,50.4H10.8V51.6H9.6zM10.8,50.4H12V51.6H10.8zM12,50.4H13.2V51.6H12zM14.4,50.4H15.6V51.6H14.4zM15.6,50.4H16.8V51.6H15.6zM16.8,50.4H18V51.6H16.8zM18,50.4H19.2V51.6H18zM21.6,50.4H22.8V51.6H21.6zM22.8,50.4H24V51.6H22.8zM24,50.4H25.2V51.6H24zM26.4,50.4H27.6V51.6H26.4zM28.8,50.4H30V51.6H28.8zM31.2,50.4H32.4V51.6H31.2zM33.6,50.4H34.8V51.6H33.6zM44.4,50.4H45.6V51.6H44.4zM48,50.4H49.2V51.6H48zM50.4,50.4H51.6V51.6H50.4zM52.8,50.4H54V51.6H52.8zM54,50.4H55.2V51.6H54zM55.2,50.4H56.4V51.6H55.2zM4.8,51.6H6V52.8H4.8zM12,51.6H13.2V52.8H12zM16.8,51.6H18V52.8H16.8zM18,51.6H19.2V52.8H18zM20.4,51.6H21.6V52.8H20.4zM26.4,51.6H27.6V52.8H26.4zM27.6,51.6H28.8V52.8H27.6zM28.8,51.6H30V52.8H28.8zM33.6,51.6H34.8V52.8H33.6zM36,51.6H37.2V52.8H36zM38.4,51.6H39.6V52.8H38.4zM42,51.6H43.2V52.8H42zM44.4,51.6H45.6V52.8H44.4zM45.6,51.6H46.8V52.8H45.6zM46.8,51.6H48V52.8H46.8zM48,51.6H49.2V52.8H48zM52.8,51.6H54V52.8H52.8zM54,51.6H55.2V52.8H54zM55.2,51.6H56.4V52.8H55.2zM56.4,51.6H57.6V52.8H56.4zM57.6,51.6H58.8V52.8H57.6zM4.8,52.8H6V54H4.8zM7.2,52.8H8.4V54H7.2zM8.4,52.8H9.6V54H8.4zM9.6,52.8H10.8V54H9.6zM12,52.8H13.2V54H12zM14.4,52.8H15.6V54H14.4zM16.8,52.8H18V54H16.8zM18,52.8H19.2V54H18zM20.4,52.8H21.6V54H20.4zM21.6,52.8H22.8V54H21.6zM22.8,52.8H24V54H22.8zM24,52.8H25.2V54H24zM27.6,52.8H28.8V54H27.6zM28.8,52.8H30V54H28.8zM30,52.8H31.2V54H30zM31.2,52.8H32.4V54H31.2zM32.4,52.8H33.6V54H32.4zM33.6,52.8H34.8V54H33.6zM36,52.8H37.2V54H36zM37.2,52.8H38.4V54H37.2zM38.4,52.8H39.6V54H38.4zM39.6,52.8H40.8V54H39.6zM42,52.8H43.2V54H42zM43.2,52.8H44.4V54H43.2zM44.4,52.8H45.6V54H44.4zM45.6,52.8H46.8V54H45.6zM46.8,52.8H48V54H46.8zM48,52.8H49.2V54H48zM49.2,52.8H50.4V54H49.2zM50.4,52.8H51.6V54H50.4zM51.6,52.8H52.8V54H51.6zM52.8,52.8H54V54H52.8zM54,52.8H55.2V54H54zM56.4,52.8H57.6V54H56.4zM57.6,52.8H58.8V54H57.6zM4.8,54H6V55.2H4.8zM7.2,54H8.4V55.2H7.2zM8.4,54H9.6V55.2H8.4zM9.6,54H10.8V55.2H9.6zM12,54H13.2V55.2H12zM14.4,54H15.6V55.2H14.4zM15.6,54H16.8V55.2H15.6zM16.8,54H18V55.2H16.8zM20.4,54H21.6V55.2H20.4zM22.8,54H24V55.2H22.8zM26.4,54H27.6V55.2H26.4zM27.6,54H28.8V55.2H27.6zM30,54H31.2V55.2H30zM32.4,54H33.6V55.2H32.4zM36,54H37.2V55.2H36zM37.2,54H38.4V55.2H37.2zM38.4,54H39.6V55.2H38.4zM39.6,54H40.8V55.2H39.6zM42,54H43.2V55.2H42zM44.4,54H45.6V55.2H44.4zM45.6,54H46.8V55.2H45.6zM46.8,54H48V55.2H46.8zM56.4,54H57.6V55.2H56.4zM57.6,54H58.8V55.2H57.6zM4.8,55.2H6V56.4H4.8zM7.2,55.2H8.4V56.4H7.2zM8.4,55.2H9.6V56.4H8.4zM9.6,55.2H10.8V56.4H9.6zM12,55.2H13.2V56.4H12zM15.6,55.2H16.8V56.4H15.6zM19.2,55.2H20.4V56.4H19.2zM20.4,55.2H21.6V56.4H20.4zM25.2,55.2H26.4V56.4H25.2zM27.6,55.2H28.8V56.4H27.6zM30,55.2H31.2V56.4H30zM33.6,55.2H34.8V56.4H33.6zM36,55.2H37.2V56.4H36zM37.2,55.2H38.4V56.4H37.2zM38.4,55.2H39.6V56.4H38.4zM40.8,55.2H42V56.4H40.8zM42,55.2H43.2V56.4H42zM43.2,55.2H44.4V56.4H43.2zM44.4,55.2H45.6V56.4H44.4zM48,55.2H49.2V56.4H48zM52.8,55.2H54V56.4H52.8zM54,55.2H55.2V56.4H54zM56.4,55.2H57.6V56.4H56.4zM57.6,55.2H58.8V56.4H57.6zM4.8,56.4H6V57.6H4.8zM12,56.4H13.2V57.6H12zM19.2,56.4H20.4V57.6H19.2zM21.6,56.4H22.8V57.6H21.6zM22.8,56.4H24V57.6H22.8zM24,56.4H25.2V57.6H24zM25.2,56.4H26.4V57.6H25.2zM27.6,56.4H28.8V57.6H27.6zM28.8,56.4H30V57.6H28.8zM33.6,56.4H34.8V57.6H33.6zM37.2,56.4H38.4V57.6H37.2zM38.4,56.4H39.6V57.6H38.4zM39.6,56.4H40.8V57.6H39.6zM42,56.4H43.2V57.6H42zM44.4,56.4H45.6V57.6H44.4zM49.2,56.4H50.4V57.6H49.2zM50.4,56.4H51.6V57.6H50.4zM52.8,56.4H54V57.6H52.8zM54,56.4H55.2V57.6H54zM55.2,56.4H56.4V57.6H55.2zM56.4,56.4H57.6V57.6H56.4zM57.6,56.4H58.8V57.6H57.6zM4.8,57.6H6V58.8H4.8zM6,57.6H7.2V58.8H6zM7.2,57.6H8.4V58.8H7.2zM8.4,57.6H9.6V58.8H8.4zM9.6,57.6H10.8V58.8H9.6zM10.8,57.6H12V58.8H10.8zM12,57.6H13.2V58.8H12zM16.8,57.6H18V58.8H16.8zM18,57.6H19.2V58.8H18zM19.2,57.6H20.4V58.8H19.2zM20.4,57.6H21.6V58.8H20.4zM24,57.6H25.2V58.8H24zM25.2,57.6H26.4V58.8H25.2zM26.4,57.6H27.6V58.8H26.4zM27.6,57.6H28.8V58.8H27.6zM42,57.6H43.2V58.8H42zM45.6,57.6H46.8V58.8H45.6zM48,57.6H49.2V58.8H48zM50.4,57.6H51.6V58.8H50.4zM51.6,57.6H52.8V58.8H51.6zM52.8,57.6H54V58.8H52.8z" id="qr-path" fill="#000000" fill-opacity="1" fill-rule="nonzero" stroke="none"/></svg>